<svg width="21" height="20" viewBox="0 0 21 20" fill="none" xmlns="http://www.w3.org/2000/svg">
<path d="M10.3587 0C10.341 0 10.2892 0.00166578 10.2646 0C10.2037 0.00124934 10.1692 0 10.1704 0C8.91851 0 8.13799 0.55887 7.34529 1.14286C6.8618 1.47297 6.36981 1.82528 5.74439 1.90476C5.50751 1.97062 5.22596 1.99436 4.99103 2C4.46394 1.99436 4.07759 1.91773 3.76682 1.90476C3.62383 1.82778 3.47587 1.79863 3.39013 1.80952C3.2457 1.79863 3.1187 1.82445 3.10762 2C3.01512 2.18218 2.9806 2.34251 2.91928 2.47619C2.86058 2.89805 2.79934 3.14417 2.63677 3.14286C0.705229 3.47191 0.152827 3.88377 0 4.19048C0.0126714 4.21735 0.00239602 4.25941 0 4.28571C-0.00582424 4.41308 0.0722683 4.51219 0.188341 4.57143C3.14706 5.02483 4.47669 8.09571 4.52018 8.19048C4.53341 8.22938 4.53505 8.23313 4.52018 8.19048C4.71836 8.60918 4.75371 8.93276 4.61435 9.2381C4.43928 9.68361 3.7755 9.89725 3.29596 10C3.22885 10.073 3.12692 10.1055 3.01345 10.0952C2.16967 10.489 2.09692 10.8492 2.16592 11.0476C2.19022 11.3461 2.60288 11.5643 2.91928 11.5238C3.02828 11.5643 3.10883 11.5476 3.20179 11.5238C3.57122 11.3286 3.92634 11.2336 4.23767 11.2381C4.65712 11.2336 4.84208 11.4139 4.89686 11.4286C4.85359 11.6409 4.84043 11.8533 4.80269 12.0952C4.7385 13.4928 4.62876 15.2582 5.0852 16.2857C6.40187 19.2852 9.2206 19.5201 10.0762 19.5238C10.0743 19.5201 10.4179 19.5238 10.4529 19.5238C11.3012 19.5238 14.1265 19.2889 15.4439 16.2857C15.9 15.2594 15.7902 13.4928 15.7265 12.0952V12C15.6858 11.8141 15.6739 11.6222 15.6323 11.4286C15.6854 11.416 15.8556 11.2503 16.1973 11.2381C16.5321 11.2465 16.8675 11.3411 17.2332 11.5238C17.3435 11.5668 17.4635 11.5776 17.5157 11.619C17.6698 11.5776 17.796 11.553 17.8924 11.5238C18.2049 11.399 18.4002 11.1878 18.3632 10.9524C18.4084 10.7585 18.2514 10.4457 17.5157 10.0952C17.4026 10.1059 17.3007 10.0734 17.2332 10C16.7528 9.89725 16.0895 9.68361 15.9148 9.2381C15.775 8.93276 15.8104 8.6096 16.009 8.19048C15.9937 8.23313 15.9953 8.2298 16.009 8.19048C16.0521 8.09571 17.3804 5.02567 20.3408 4.57143C20.4565 4.51219 20.535 4.41308 20.5291 4.28571C20.5263 4.25899 20.5161 4.21651 20.5291 4.19048C20.3759 3.88544 19.8243 3.47399 17.8924 3.14286C17.7372 3.1475 17.676 2.93927 17.6099 2.47619C17.5477 2.34417 17.5132 2.18801 17.4215 2C17.4244 1.8815 17.3369 1.81487 17.2332 1.80952H17.139C17.0631 1.81487 16.9181 1.83361 16.7623 1.90476C16.4072 1.93481 16.041 1.99436 15.5381 2C15.3028 1.99436 15.0212 1.97062 14.7848 1.90476C14.1593 1.82528 13.6678 1.4738 13.1839 1.14286C12.3912 0.55887 11.6106 0 10.3587 0Z" transform="translate(0.282501 19.5238) scale(1 -1)" fill="white"/>
<path fill-rule="evenodd" clip-rule="evenodd" d="M5.10029 16.6053C6.4853 19.7518 9.4213 19.9967 10.2875 19.9967C10.2987 19.9967 10.3637 19.9973 10.4396 19.9979C10.5455 19.9989 10.6725 20 10.703 20C11.5717 20 14.5139 19.7551 15.8997 16.6069C16.3658 15.5477 16.2542 13.7479 16.1641 12.3023L16.1603 12.241L16.1519 12.1007C16.1453 11.993 16.139 11.8883 16.1332 11.7858C16.1982 11.7495 16.3119 11.7049 16.486 11.697C16.7483 11.7086 17.0526 11.7962 17.391 11.9568C17.5351 12.0253 17.6891 12.0395 17.7933 12.0395C17.9452 12.0395 18.1004 12.0094 18.2322 11.9539C18.6208 11.8134 18.8654 11.5297 18.8716 11.2113C18.8789 10.8062 18.522 10.4566 17.8101 10.1717C17.7232 10.1371 17.6179 10.1028 17.5054 10.0665C17.1036 9.93762 16.4963 9.74237 16.3316 9.34897C16.2464 9.14496 16.2802 8.88297 16.4424 8.54837C16.4955 8.42236 17.7801 5.45358 20.6354 4.97675C20.8548 4.94003 21.0117 4.74228 20.9993 4.517C20.9956 4.4494 20.9796 4.38223 20.9524 4.31757C20.7383 3.81235 19.835 3.44104 18.1893 3.18237C18.1351 3.10803 18.0789 2.84769 18.0438 2.68539L18.0428 2.68048C18.0078 2.51779 17.9724 2.35715 17.9225 2.18652C17.8542 1.94916 17.6817 1.81815 17.4128 1.81815C17.2963 1.81815 17.137 1.83817 16.9385 1.87781C16.6223 1.94037 16.2678 1.99796 15.8195 1.99796C15.5588 1.99796 15.2887 1.97501 15.017 1.92953C14.4865 1.83987 14.0359 1.51724 13.5129 1.14279L13.5122 1.14227C12.7649 0.606598 11.9176 0 10.6297 0C10.5721 0 10.5177 0.00167847 10.4761 0.00375366C10.4407 0.000823975 10.4053 0 10.3699 0C9.08244 0 8.23512 0.606598 7.48704 1.1427L7.48585 1.14355C6.9643 1.517 6.51331 1.8399 5.98301 1.92953C5.71128 1.97501 5.44117 1.99796 5.18055 1.99796C4.71079 1.99796 4.3353 1.92371 4.0611 1.86945C3.8787 1.83316 3.72059 1.80188 3.5868 1.80188C3.25578 1.80188 3.1269 2.00629 3.07749 2.17734C3.02683 2.35175 2.99143 2.51654 2.95725 2.67673L2.95698 2.67807C2.92197 2.84048 2.86488 3.10541 2.80985 3.1803C1.16462 3.43896 0.261299 3.8111 0.0467911 4.31839C0.0200272 4.38306 0.00440222 4.4494 0.000679078 4.51657C-0.01165 4.74146 0.14521 4.94003 0.364662 4.97675C3.2187 5.45276 4.5041 8.42197 4.56709 8.56964C4.71943 8.88254 4.75361 9.14496 4.66837 9.34897C4.50336 9.74216 3.89668 9.93741 3.49482 10.0667L3.49415 10.067C3.38258 10.1024 3.27717 10.1362 3.18946 10.1717C2.21699 10.5609 2.08152 11.0081 2.13917 11.3148C2.21864 11.7403 2.73124 12.0261 3.15983 12.0261C3.28333 12.0261 3.39533 12.0027 3.4925 11.9568C3.85853 11.7829 4.18336 11.6953 4.45841 11.6953C4.66425 11.6953 4.7952 11.7453 4.86683 11.7854C4.85764 11.9514 4.8469 12.1228 4.83649 12.2883L4.83555 12.3036C4.7458 13.7483 4.63419 15.5464 5.10029 16.6053ZM15.7829 12.3112C15.8699 13.7104 15.9781 15.4517 15.5549 16.4127C14.2697 19.3331 11.5422 19.5486 10.7029 19.5482C10.7029 19.5482 10.3546 19.5449 10.3348 19.5449C9.53349 19.5449 6.81956 19.3205 5.53928 16.411C5.11616 15.4498 5.22422 13.7104 5.3112 12.3109L5.31132 12.3088L5.31776 12.204C5.32917 12.0192 5.34025 11.8397 5.34925 11.6667L5.35419 11.579L5.29609 11.5134C5.27094 11.4846 5.03269 11.2327 4.49848 11.2327C4.15882 11.2327 3.77094 11.3351 3.34638 11.5364C3.30845 11.5548 3.25694 11.564 3.1984 11.564C2.93705 11.564 2.6374 11.386 2.60484 11.211C2.57597 11.0589 2.76682 10.8087 3.3884 10.5597C3.46015 10.5309 3.55494 10.5004 3.66459 10.4653L3.66596 10.4649C4.14494 10.3107 4.8668 10.0784 5.10975 9.49783C5.24702 9.16992 5.20951 8.78394 4.99848 8.34949C4.91151 8.14352 3.54548 5.02469 0.483223 4.46033C0.535591 4.33627 0.866585 3.90601 2.92799 3.5835C3.24992 3.53296 3.32948 3.16452 3.42139 2.7384C3.45396 2.58636 3.48817 2.42844 3.53434 2.26929C3.55 2.21457 3.55164 2.21039 3.62583 2.21039C3.71735 2.21039 3.85627 2.23755 4.01704 2.26971C4.30967 2.32779 4.70994 2.40674 5.22147 2.40674C5.50672 2.40674 5.80103 2.38126 6.09617 2.33194C6.72642 2.22543 7.2396 1.85782 7.78288 1.46848C8.51206 0.945892 9.2664 0.405762 10.4168 0.405762C10.4461 0.405762 10.4746 0.407013 10.5285 0.409943C10.578 0.40744 10.6271 0.405762 10.6769 0.405762C11.8274 0.405762 12.5817 0.945892 13.3109 1.4689L13.3119 1.46964C13.8548 1.85828 14.3678 2.22549 14.998 2.33194C15.2932 2.38126 15.5875 2.40674 15.8727 2.40674C16.3843 2.40674 16.7845 2.33572 17.0768 2.27765C17.2375 2.24591 17.3768 2.22668 17.4923 2.22668C17.5434 2.22668 17.5458 2.22961 17.5599 2.27765C17.606 2.4368 17.6402 2.59055 17.6728 2.74258L17.6731 2.7438C17.7649 3.16937 17.8438 3.5351 18.1662 3.58557C20.2272 3.90765 20.5586 4.3371 20.6233 4.51172C17.5483 5.02512 16.1827 8.14438 16.0957 8.34949C15.8843 8.78394 15.8472 9.17032 15.984 9.49826C16.2273 10.0781 16.9486 10.3105 17.4272 10.4647L17.4292 10.4653C17.5388 10.5004 17.6336 10.5309 17.7058 10.5597C18.4411 10.8542 18.4939 11.1099 18.4927 11.1813C18.4902 11.3071 18.3435 11.4462 18.1238 11.5247C18.0417 11.5598 17.9424 11.5773 17.8488 11.5773C17.7668 11.5773 17.6889 11.564 17.6312 11.5364C17.2351 11.3484 16.8706 11.2469 16.531 11.2344C16.0417 11.2536 15.8216 11.4867 15.7985 11.513L15.74 11.579L15.7449 11.6671C15.7557 11.8727 15.7688 12.0878 15.7829 12.3101L15.7829 12.3112Z" transform="translate(0 20) scale(1 -1)" fill="#030303"/>
</svg>
